<svg width="127" height="23" viewBox="0 0 127 23" fill="none" xmlns="http://www.w3.org/2000/svg">
<path d="M8.00439 0.927418H0V22.5672H4.83284V15.7661H8.00439C12.1727 15.7661 15.4047 12.4583 15.4047 8.34678C15.4047 4.23521 12.1727 0.927418 8.00439 0.927418ZM8.00439 11.129H4.83284V5.56452H8.00439C9.48444 5.56452 10.5718 6.77016 10.5718 8.34678C10.5718 9.92339 9.48444 11.129 8.00439 11.129Z" fill="#566EE9"/>
<path d="M21.9011 9.86156V7.11022H17.3704V22.5672H21.9011V15.5806C21.9011 12.5202 24.5592 11.7473 26.4319 12.0565V6.80107C24.529 6.80107 22.5053 7.79032 21.9011 9.86156Z" fill="#566EE9"/>
<path d="M39.0719 7.11022V8.56317C38.0751 7.38844 36.595 6.67742 34.5713 6.67742C30.6144 6.67742 27.3522 10.2325 27.3522 14.8387C27.3522 19.4449 30.6144 23 34.5713 23C36.595 23 38.0751 22.289 39.0719 21.1142V22.5672H43.6027V7.11022H39.0719ZM35.4775 18.6102C33.3933 18.6102 31.883 17.1573 31.883 14.8387C31.883 12.5202 33.3933 11.0672 35.4775 11.0672C37.5616 11.0672 39.0719 12.5202 39.0719 14.8387C39.0719 17.1573 37.5616 18.6102 35.4775 18.6102Z" fill="#566EE9"/>
<path d="M54.1759 23C57.136 23 59.7035 21.4234 61.0023 19.0121L57.0454 16.6936C56.5621 17.7755 55.4445 18.4247 54.1155 18.4247C52.1522 18.4247 50.7023 16.9718 50.7023 14.8387C50.7023 12.7056 52.1522 11.2527 54.1155 11.2527C55.4445 11.2527 56.5319 11.9019 57.0454 12.9839L61.0023 10.6344C59.7035 8.25403 57.1058 6.67742 54.1759 6.67742C49.5847 6.67742 46.1715 10.2325 46.1715 14.8387C46.1715 19.4449 49.5847 23 54.1759 23Z" fill="#566EE9"/>
<path d="M71.6758 11.5618V7.11022H68.5647V2.78226L64.0339 4.17339V7.11022H61.6175V11.5618H64.0339V17.0336C64.0339 21.3616 65.7556 23.1855 71.6758 22.5672V18.3629C69.6734 18.3629 68.5647 18.3629 68.5647 17.0336V11.5618H71.6758Z" fill="#566EE9"/>
<path d="M76.5065 5.75C77.9866 5.75 79.225 4.48253 79.225 2.96774C79.225 1.45296 77.9866 0.185483 76.5065 0.185483C75.0265 0.185483 73.7881 1.45296 73.7881 2.96774C73.7881 4.48253 75.0265 5.75 76.5065 5.75Z" fill="#566EE9"/>
<path d="M114.614 7.11022V8.56317C113.618 7.38844 112.138 6.67742 110.114 6.67742C106.157 6.67742 102.895 10.2325 102.895 14.8387C102.895 19.4449 106.157 23 110.114 23C112.138 23 113.618 22.289 114.614 21.1142V22.5672H119.145V7.11022H114.614ZM111.02 18.6102C108.936 18.6102 107.426 17.1573 107.426 14.8387C107.426 12.5202 108.936 11.0672 111.02 11.0672C113.104 11.0672 114.614 12.5202 114.614 14.8387C114.614 17.1573 113.104 18.6102 111.02 18.6102Z" fill="#566EE9"/>
<path d="M122.469 22.5672H127V0H122.469V22.5672Z" fill="#566EE9"/>
<path d="M92.2999 23C96.1788 23 99.5727 21.0559 101.391 18.0009L97.2091 15.5322C96.3 17.1986 94.4515 18.186 92.2999 18.186C88.5423 18.186 86.1181 15.6248 86.1181 11.7674C86.1181 7.91011 88.5423 5.34884 92.2999 5.34884C94.4515 5.34884 96.2697 6.33632 97.2091 8.00268L101.391 5.53399C99.5424 2.47898 96.1485 0.534884 92.2999 0.534884C85.906 0.534884 81.2695 5.41056 81.2695 11.7674C81.2695 18.1243 85.906 23 92.2999 23Z" fill="#566EE9"/>
<path d="M74.294 7.08721H78.787V17.0559C78.787 21.4036 77.0797 23.2359 71.2088 22.6148V18.3913C73.2057 18.3913 74.294 18.3913 74.294 17.0559V7.08721Z" fill="#566EE9"/>
<path d="M73.5607 22.7326H69.5103V21.9302H73.5607V22.7326Z" fill="#566EE9"/>
</svg>
